<svg width="77" height="25" viewBox="0 0 77 25" fill="none" xmlns="http://www.w3.org/2000/svg">
<path d="M20.276 20.832H4.4V1.752L0.44 0.167998V24H21.86L20.276 20.832ZM46.6575 20.832H34.7055C31.2855 20.832 29.5575 19.104 29.5575 15.684V8.52C29.5575 5.064 31.2855 3.372 34.7055 3.372H46.2615L47.8455 0.167998H33.9135C28.3695 0.167998 25.5615 2.976 25.5975 8.52V15.684C25.5975 21.228 28.3695 24.036 33.9135 24.036H48.2415L46.6575 20.832ZM53.9745 0.167998V24.036L57.9345 22.452V13.704H72.1905V10.5H57.9345V3.372H74.6025L76.1865 0.167998H53.9745Z" fill="white"/>
</svg>
